<?xml version="1.0" encoding="UTF-8" standalone="no"?>
<svg width="25px" height="30px" viewBox="0 0 25 30" version="1.1" xmlns="http://www.w3.org/2000/svg" xmlns:xlink="http://www.w3.org/1999/xlink" xmlns:sketch="http://www.bohemiancoding.com/sketch/ns">
    <!-- Generator: Sketch 3.2.2 (9983) - http://www.bohemiancoding.com/sketch -->
    <title>ico-bus4</title>
    <desc>Created with Sketch.</desc>
    <defs></defs>
    <g id="icons" stroke="none" stroke-width="1" fill="none" fill-rule="evenodd" sketch:type="MSPage">
        <g id="ico-bus4" sketch:type="MSArtboardGroup">
            <path d="M12.5,30 C12.5,30 25,19.4035594 25,12.5 C25,5.59644063 19.4035594,0 12.5,0 C5.59644063,0 0,5.59644063 0,12.5 C0,19.4035594 12.5,30 12.5,30 Z" id="Marker" stroke="#EBEBEB" fill="#7ED321" sketch:type="MSShapeGroup"></path>
            <path d="M18.7903208,8.66768598 C18.66542,7.47032314 18.466454,6.53805055 18.151677,6.17161196 C16.8538533,4.66492214 7.76269083,4.55466044 6.73049174,6.17161196 C6.47799685,6.56776179 6.30091378,7.49673312 6.18207285,8.66966672 C5.79861728,8.71390346 5.5,9.03049319 5.5,9.41805977 L5.5,10.8848045 C5.5,11.2109678 5.71074906,11.4859618 6.00498977,11.5932524 C5.93530118,13.9034661 5.99186004,16.3137077 6.09622459,17.512391 C6.09622459,18.437731 6.73015508,18.2842229 6.73015508,18.2842229 L7.32435971,18.2842229 L7.32435971,19.2831807 C7.32435971,19.6793306 7.74080794,19.9998818 8.25387755,19.9998818 C8.76762047,19.9998818 9.1840687,19.6793306 9.1840687,19.2831807 L9.1840687,18.2842229 L16.097042,18.2842229 L16.097042,19.2831807 C16.097042,19.6793306 16.5131536,19.9998818 17.0268965,19.9998818 C17.5399661,19.9998818 17.9564143,19.6793306 17.9564143,19.2831807 L17.9564143,18.2842229 L18.151677,18.2842229 C18.151677,18.2842229 18.8977153,18.3845809 18.945521,17.9488161 C18.945521,16.753434 19.0222794,14.1041821 18.9589874,11.6034863 C19.2717444,11.50742 19.4999997,11.2248331 19.4999997,10.8848045 L19.4999997,9.41805977 C19.5003364,9.02124969 19.1872427,8.69937796 18.7903208,8.66768598 L18.7903208,8.66768598 Z M8.95076343,6.38652324 L15.9314054,6.38652324 L15.9314054,7.42212491 L8.95076343,7.42212491 L8.95076343,6.38652324 L8.95076343,6.38652324 Z M9.05041474,17.1046868 C8.50233251,17.1046868 8.05827818,16.668922 8.05827818,16.1314788 C8.05827818,15.5943656 8.50233251,15.158931 9.05041474,15.158931 C9.59849697,15.158931 10.042888,15.5943656 10.042888,16.1314788 C10.042888,16.668922 9.59883363,17.1046868 9.05041474,17.1046868 L9.05041474,17.1046868 Z M15.8940361,17.1046868 C15.3462905,17.1046868 14.9012262,16.668922 14.9012262,16.1314788 C14.9012262,15.5943656 15.3459539,15.158931 15.8940361,15.158931 C16.4421183,15.158931 16.8861727,15.5943656 16.8861727,16.1314788 C16.8865093,16.668922 16.4421183,17.1046868 15.8940361,17.1046868 L15.8940361,17.1046868 Z M17.1555006,12.8460762 L7.72666823,12.8460762 L7.72666823,7.99654215 L17.1555006,7.99654215 L17.1555006,12.8460762 L17.1555006,12.8460762 Z" id="Bus" fill="#FEFEFE" sketch:type="MSShapeGroup"></path>
        </g>
    </g>
</svg>