<?xml version="1.0" encoding="UTF-8" standalone="no"?>
<svg width="27px" height="32px" viewBox="0 0 27 32" version="1.1" xmlns="http://www.w3.org/2000/svg" xmlns:xlink="http://www.w3.org/1999/xlink" xmlns:sketch="http://www.bohemiancoding.com/sketch/ns">
    <!-- Generator: Sketch 3.2.2 (9983) - http://www.bohemiancoding.com/sketch -->
    <title>ico-bus</title>
    <desc>Created with Sketch.</desc>
    <defs></defs>
    <g id="Page-1" stroke="none" stroke-width="1" fill="none" fill-rule="evenodd" sketch:type="MSPage">
        <g id="ico-bus" sketch:type="MSLayerGroup" transform="translate(1.000000, 1.000000)">
            <g id="assets" sketch:type="MSShapeGroup">
                <g id="icon-bus">
                    <path d="M12.5,30 C12.5,30 25,19.4035594 25,12.5 C25,5.59644063 19.4035594,0 12.5,0 C5.59644063,0 0,5.59644063 0,12.5 C0,19.4035594 12.5,30 12.5,30 L12.5,30 Z" id="Oval-1" stroke="#EBEBEB" fill="#50E3C2"></path>
                    <path d="M18.7281665,8.70333333 C18.6044999,7.49433333 18.4074999,6.553 18.0958332,6.183 C16.8108332,4.66166667 7.80949987,4.55033333 6.78749987,6.183 C6.53749987,6.583 6.36216653,7.521 6.24449987,8.70533333 C5.8648332,8.75 5.56916653,9.0696667 5.56916653,9.461 L5.56916653,10.942 C5.56916653,11.2713333 5.7778332,11.549 6.06916653,11.6573333 C6.00016653,13.99 6.05616653,16.4236667 6.15949987,17.634 C6.15949987,18.5683333 6.78716653,18.4133333 6.78716653,18.4133333 L7.37549987,18.4133333 L7.37549987,19.422 C7.37549987,19.822 7.7878332,20.1456667 8.2958332,20.1456667 C8.80449987,20.1456667 9.2168332,19.822 9.2168332,19.422 L9.2168332,18.4133333 L16.0614999,18.4133333 L16.0614999,19.422 C16.0614999,19.822 16.4734999,20.1456667 16.9821665,20.1456667 C17.4901665,20.1456667 17.9024999,19.822 17.9024999,19.422 L17.9024999,18.4133333 L18.0958332,18.4133333 C18.0958332,18.4133333 18.8344999,18.5146667 18.8818332,18.0746667 C18.8818332,16.8676667 18.9578332,14.1926667 18.8951665,11.6676667 C19.2048332,11.5706667 19.4308332,11.2853333 19.4308332,10.942 L19.4308332,9.461 C19.4311665,9.0603333 19.1211665,8.73533333 18.7281665,8.70333333 L18.7281665,8.70333333 L18.7281665,8.70333333 Z M8.9858332,6.4 L15.8974999,6.4 L15.8974999,7.44566667 L8.9858332,7.44566667 L8.9858332,6.4 L8.9858332,6.4 Z M9.0844999,17.2223333 C8.5418332,17.2223333 8.10216653,16.7823333 8.10216653,16.2396667 C8.10216653,15.6973333 8.5418332,15.2576667 9.0844999,15.2576667 C9.6271665,15.2576667 10.0671665,15.6973333 10.0671665,16.2396667 C10.0671665,16.7823333 9.6274999,17.2223333 9.0844999,17.2223333 L9.0844999,17.2223333 L9.0844999,17.2223333 Z M15.8604999,17.2223333 C15.3181665,17.2223333 14.8774999,16.7823333 14.8774999,16.2396667 C14.8774999,15.6973333 15.3178332,15.2576667 15.8604999,15.2576667 C16.4031665,15.2576667 16.8428332,15.6973333 16.8428332,16.2396667 C16.8431665,16.7823333 16.4031665,17.2223333 15.8604999,17.2223333 L15.8604999,17.2223333 L15.8604999,17.2223333 Z M17.1094999,12.9223333 L7.7738332,12.9223333 L7.7738332,8.02566667 L17.1094999,8.02566667 L17.1094999,12.9223333 L17.1094999,12.9223333 Z" id="Bus" fill="#FEFEFE"></path>
                </g>
            </g>
        </g>
    </g>
</svg>