<?xml version="1.0" encoding="UTF-8" standalone="no"?>
<svg width="60px" height="60px" viewBox="0 0 60 60" version="1.1" xmlns="http://www.w3.org/2000/svg" xmlns:xlink="http://www.w3.org/1999/xlink" xmlns:sketch="http://www.bohemiancoding.com/sketch/ns">
    <!-- Generator: Sketch 3.2.2 (9983) - http://www.bohemiancoding.com/sketch -->
    <title>ico-help</title>
    <desc>Created with Sketch.</desc>
    <defs></defs>
    <g id="icons" stroke="none" stroke-width="1" fill="none" fill-rule="evenodd" sketch:type="MSPage">
        <g id="ico-help" sketch:type="MSArtboardGroup">
            <circle id="circle" stroke="#FFFFFF" stroke-width="2" sketch:type="MSShapeGroup" cx="30" cy="30" r="30"></circle>
            <path d="M27.5635018,36.5157077 C27.5766544,35.5459231 27.6424162,34.7175779 27.7607891,34.0306471 C27.8791621,33.3437164 28.0698713,32.7174065 28.3329223,32.1516988 C28.5959734,31.5859912 28.9412227,31.0371282 29.3686806,30.5050936 C29.7961386,29.973059 30.3255209,29.3770545 30.9568434,28.7170622 C31.4040302,28.2456391 31.8347698,27.7977939 32.2490752,27.3735132 C32.6633806,26.9492324 33.0250704,26.511489 33.3341554,26.0602697 C33.6432403,25.6090505 33.889847,25.1207982 34.0739827,24.5954982 C34.2581185,24.0701982 34.350185,23.4640919 34.350185,22.7771612 C34.350185,21.362892 33.9884952,20.2550644 33.2651048,19.4536451 C32.5417144,18.6522259 31.489526,18.2515223 30.108508,18.2515223 C29.5297957,18.2515223 28.9741087,18.3289692 28.4414303,18.4838654 C27.908752,18.6387615 27.4352672,18.881204 27.0209618,19.2112002 C26.6066564,19.5411963 26.2745594,19.9587362 26.0246609,20.4638324 C25.7747624,20.9689285 25.649815,21.5716676 25.649815,22.2720676 L22,22.2720676 C22.0131526,21.1271829 22.2301664,20.1035368 22.6510481,19.2010983 C23.0719298,18.2986599 23.6440572,17.5342925 24.3674476,16.9079733 C25.090838,16.281654 25.942453,15.8035035 26.9223181,15.4735074 C27.9021833,15.1435112 28.964236,14.9785156 30.108508,14.9785156 C31.371153,14.9785156 32.4923913,15.1569803 33.4722565,15.5139149 C34.4521216,15.8708495 35.2774319,16.3826726 35.9482121,17.0493995 C36.6189923,17.7161264 37.128646,18.5242681 37.4771887,19.4738489 C37.8257313,20.4234296 38,21.4841156 38,22.6559387 C38,23.5718464 37.8619003,24.4271297 37.5856967,25.2218143 C37.3094931,26.0164989 36.937939,26.7741318 36.4710234,27.4947356 C36.0041078,28.2153395 35.4747255,28.8955254 34.8828607,29.5353139 C34.2909958,30.1751023 33.6794113,30.7980449 33.0480888,31.4041603 C32.3246984,32.091091 31.8380613,32.8655602 31.5881628,33.7275909 C31.3382643,34.5896217 31.2133169,35.5189847 31.2133169,36.5157077 L27.5635018,36.5157077 Z M27.405672,42.9202949 C27.405672,42.3141795 27.5865169,41.8057237 27.9482121,41.3949122 C28.3099073,40.9841006 28.8458657,40.7786979 29.5561036,40.7786979 C30.2663414,40.7786979 30.805588,40.9841006 31.1738594,41.3949122 C31.5421309,41.8057237 31.7262639,42.3141795 31.7262639,42.9202949 C31.7262639,43.5264103 31.5421309,44.0281316 31.1738594,44.4254739 C30.805588,44.8228162 30.2663414,45.0214844 29.5561036,45.0214844 C28.8458657,45.0214844 28.3099073,44.8228162 27.9482121,44.4254739 C27.5865169,44.0281316 27.405672,43.5264103 27.405672,42.9202949 L27.405672,42.9202949 Z" id="?" fill="#FFFFFF" sketch:type="MSShapeGroup"></path>
        </g>
    </g>
</svg>