<?xml version="1.0" encoding="UTF-8" standalone="no"?>
<svg width="60px" height="60px" viewBox="0 0 60 60" version="1.1" xmlns="http://www.w3.org/2000/svg" xmlns:xlink="http://www.w3.org/1999/xlink" xmlns:sketch="http://www.bohemiancoding.com/sketch/ns">
    <!-- Generator: Sketch 3.2.2 (9983) - http://www.bohemiancoding.com/sketch -->
    <title>ico-more</title>
    <desc>Created with Sketch.</desc>
    <defs></defs>
    <g id="icons" stroke="none" stroke-width="1" fill="none" fill-rule="evenodd" sketch:type="MSPage">
        <g id="ico-more" sketch:type="MSArtboardGroup">
            <circle id="circle" stroke="#FFFFFF" stroke-width="2" sketch:type="MSShapeGroup" cx="30" cy="30" r="30"></circle>
            <path d="M43,34 C45.209139,34 47,32.209139 47,30 C47,27.790861 45.209139,26 43,26 C40.790861,26 39,27.790861 39,30 C39,32.209139 40.790861,34 43,34 Z M30,34 C32.209139,34 34,32.209139 34,30 C34,27.790861 32.209139,26 30,26 C27.790861,26 26,27.790861 26,30 C26,32.209139 27.790861,34 30,34 Z M17,34 C19.209139,34 21,32.209139 21,30 C21,27.790861 19.209139,26 17,26 C14.790861,26 13,27.790861 13,30 C13,32.209139 14.790861,34 17,34 Z" id="dots" fill="#FFFFFF" sketch:type="MSShapeGroup"></path>
        </g>
    </g>
</svg>