<?xml version="1.0" encoding="UTF-8" standalone="no"?>
<svg width="27px" height="32px" viewBox="0 0 27 32" version="1.1" xmlns="http://www.w3.org/2000/svg" xmlns:xlink="http://www.w3.org/1999/xlink" xmlns:sketch="http://www.bohemiancoding.com/sketch/ns">
    <!-- Generator: Sketch 3.1.1 (8761) - http://www.bohemiancoding.com/sketch -->
    <title>icon-bus</title>
    <desc>Created with Sketch.</desc>
    <defs></defs>
    <g id="assets" stroke="none" stroke-width="1" fill="none" fill-rule="evenodd" sketch:type="MSPage">
        <g id="icon-bus" sketch:type="MSArtboardGroup">
            <path d="M13.5,31 C13.5,31 26,20.4035594 26,13.5 C26,6.59644063 20.4035594,1 13.5,1 C6.59644063,1 1,6.59644063 1,13.5 C1,20.4035594 13.5,31 13.5,31 Z" id="Oval-1" stroke="#EBEBEB" fill="#1088AF" sketch:type="MSShapeGroup"></path>
            <path d="M19.7281665,9.70333333 C19.6044999,8.49433333 19.4074999,7.553 19.0958332,7.183 C17.8108332,5.66166667 8.80949987,5.55033333 7.78749987,7.183 C7.53749987,7.583 7.36216653,8.521 7.24449987,9.70533333 C6.8648332,9.75 6.56916653,10.0696667 6.56916653,10.461 L6.56916653,11.942 C6.56916653,12.2713333 6.7778332,12.549 7.06916653,12.6573333 C7.00016653,14.99 7.05616653,17.4236667 7.15949987,18.634 C7.15949987,19.5683333 7.78716653,19.4133333 7.78716653,19.4133333 L8.37549987,19.4133333 L8.37549987,20.422 C8.37549987,20.822 8.7878332,21.1456667 9.2958332,21.1456667 C9.80449987,21.1456667 10.2168332,20.822 10.2168332,20.422 L10.2168332,19.4133333 L17.0614999,19.4133333 L17.0614999,20.422 C17.0614999,20.822 17.4734999,21.1456667 17.9821665,21.1456667 C18.4901665,21.1456667 18.9024999,20.822 18.9024999,20.422 L18.9024999,19.4133333 L19.0958332,19.4133333 C19.0958332,19.4133333 19.8344999,19.5146667 19.8818332,19.0746667 C19.8818332,17.8676667 19.9578332,15.1926667 19.8951665,12.6676667 C20.2048332,12.5706667 20.4308332,12.2853333 20.4308332,11.942 L20.4308332,10.461 C20.4311665,10.0603333 20.1211665,9.73533333 19.7281665,9.70333333 L19.7281665,9.70333333 Z M9.9858332,7.4 L16.8974999,7.4 L16.8974999,8.44566667 L9.9858332,8.44566667 L9.9858332,7.4 L9.9858332,7.4 Z M10.0844999,18.2223333 C9.5418332,18.2223333 9.10216653,17.7823333 9.10216653,17.2396667 C9.10216653,16.6973333 9.5418332,16.2576667 10.0844999,16.2576667 C10.6271665,16.2576667 11.0671665,16.6973333 11.0671665,17.2396667 C11.0671665,17.7823333 10.6274999,18.2223333 10.0844999,18.2223333 L10.0844999,18.2223333 Z M16.8604999,18.2223333 C16.3181665,18.2223333 15.8774999,17.7823333 15.8774999,17.2396667 C15.8774999,16.6973333 16.3178332,16.2576667 16.8604999,16.2576667 C17.4031665,16.2576667 17.8428332,16.6973333 17.8428332,17.2396667 C17.8431665,17.7823333 17.4031665,18.2223333 16.8604999,18.2223333 L16.8604999,18.2223333 Z M18.1094999,13.9223333 L8.7738332,13.9223333 L8.7738332,9.02566667 L18.1094999,9.02566667 L18.1094999,13.9223333 L18.1094999,13.9223333 Z" id="Bus" fill="#FEFEFE" sketch:type="MSShapeGroup"></path>
        </g>
    </g>
</svg>